<svg width="49" height="21" viewBox="0 0 49 21" fill="none" xmlns="http://www.w3.org/2000/svg">
<path d="M15.6917 4.61477L19.0195 3.66113L16.0719 18.8326L12.7441 19.3528C12.7441 19.3528 15.6451 7.70241 15.6917 4.61477Z" fill="white"/>
<path d="M44.7274 0.953635L48.0551 0L45.1075 15.1715L41.7798 15.6916C41.7798 15.6916 44.6807 4.04128 44.7274 0.953635Z" fill="white"/>
<path d="M19.3061 8.89612L22.8739 7.84912C22.8739 7.84912 20.5465 17.1721 20.8265 18.2657L17.4521 18.6459C17.4521 18.6459 19.6395 10.4166 19.3061 8.89612Z" fill="white"/>
<path d="M20.6395 4.28134L20.166 7.04221L23.207 6.08857L23.7271 3.42773L20.6395 4.28134Z" fill="white"/>
<path d="M33.1436 7.04214L29.9093 7.28222L26.8016 11.6903L26.4549 11.6703L28.2221 2.5874L24.8944 3.54104C24.8477 6.62868 21.9468 18.279 21.9468 18.279L25.2745 17.7589L26.3282 12.3371H26.5816L28.2221 17.6255L31.4031 17.052L29.3758 11.5169L33.1503 7.04881L33.1436 7.04214Z" fill="white"/>
<path d="M6.80215 6.60879L0 20.92C0 20.92 2.23404 20.2531 3.18767 20.4465L4.75484 16.692L8.79611 16.2185L8.60272 19.9263L12.1238 19.3061C12.1238 19.3061 11.0302 7.70247 11.0302 6.08862C11.0302 6.08862 7.41568 6.66214 6.79548 6.60879H6.80215ZM5.75515 14.3179L8.32263 8.6561L8.70275 14.0311L5.75515 14.3179Z" fill="white"/>
<path d="M32.7302 10.0366C32.7302 10.0366 30.863 14.3179 32.5101 16.1518C34.1573 17.9924 37.4584 15.5783 37.4584 15.5783V16.4053L40.3126 15.9918C40.3126 15.9918 41.9598 6.89558 42.3066 5.9086C42.3066 5.9086 34.9442 5.42845 32.7302 10.0299V10.0366ZM37.7718 13.9645C37.7718 13.9645 36.5047 15.0715 35.2977 14.3113C34.0906 13.551 35.0443 7.74919 38.8788 8.34938L37.7718 13.9578V13.9645Z" fill="white"/>
</svg>
