<svg width="55" height="17" viewBox="0 0 55 17" fill="none" xmlns="http://www.w3.org/2000/svg">
<path d="M53.4749 11.4523H51.1919L52.4372 5.27122C52.4177 4.26589 51.0362 4.42804 50.3747 4.61613L48.9607 11.4588H46.8333L48.0786 5.2777C48.1954 4.33724 46.2301 4.27238 46.0226 4.78477L44.7513 11.4588H42.4683L44.0768 3.35786C45.2637 2.67683 47.1965 2.40442 48.5132 2.76115C48.7726 2.83249 49.4018 3.24111 49.4601 3.23462C49.5834 3.22165 49.9012 3.00113 50.1022 2.93627C51.7173 2.43685 54.0392 2.35902 54.7008 4.25941C54.6878 6.67219 53.7798 9.05254 53.4814 11.4523H53.4749Z" fill="white"/>
<path d="M15.0461 7.92318H10.4216C10.1103 7.92318 10.3697 8.91553 10.4865 9.10363C10.6227 9.33712 11.3297 9.68737 11.5632 9.68737H14.7283C14.631 10.0052 14.4883 11.3607 14.2484 11.4386C10.3243 11.5878 7.48349 11.6072 8.32018 6.75571C8.85203 3.69433 10.0973 2.36471 13.3144 2.7409C16.1941 3.07817 15.4872 5.90605 15.0396 7.92318H15.0461ZM13.2819 6.36655C13.6062 5.25745 13.697 4.51805 12.2961 4.49211C10.8951 4.46616 10.9405 5.3288 10.5838 6.36655H13.2819Z" fill="white"/>
<path d="M38.3097 2.83105L37.0709 9.0057C37.1228 9.84887 38.4005 9.52457 38.9778 9.58943L40.3917 2.83105H42.571L40.8458 11.4574C39.0167 11.2434 34.6257 12.3395 34.7814 9.32351L36.0267 2.83105H38.3097Z" fill="white"/>
<path d="M22.4197 11.4528H20.2404L21.3819 5.06412C21.2782 4.5193 19.9096 4.59713 19.4686 4.59064L18.0611 11.4528H15.8818L17.6071 2.82646C18.9432 2.92375 20.422 2.70971 21.7387 2.84592C22.6856 2.94321 23.4899 3.33885 23.665 4.35066C23.5937 6.73101 22.8218 9.10488 22.4262 11.4528H22.4197Z" fill="white"/>
<path d="M8.60028 0.452468L8.29544 2.41772C7.05013 2.15828 5.29892 2.04153 4.24171 2.88471C3.1845 3.72788 2.41267 6.62711 2.60725 7.95025C2.91209 10.0128 5.76591 9.55877 7.2512 9.37716L6.82312 11.4397C4.83842 11.5305 2.34132 11.8937 0.979268 10.0971C-0.590336 8.02159 0.635512 2.94308 2.5813 1.32807C4.16388 0.0114235 6.67395 0.134655 8.60028 0.452468Z" fill="white"/>
<path d="M28.2363 0.965225L27.8212 2.83318H29.5854L29.2676 4.59088L27.4969 4.65574C27.4515 5.64161 26.4592 8.39814 26.6992 9.19592C26.7251 9.28672 27.0105 9.57859 27.0429 9.57859H28.6515L28.2688 11.453C26.3619 11.4595 24.215 11.706 24.4031 9.12457C24.5264 7.3993 25.3306 3.74122 25.8106 2.01595C25.869 1.79543 25.9079 1.49059 26.0441 1.31547C26.096 1.25061 26.5824 0.95874 26.6213 0.95874H28.2299L28.2363 0.965225Z" fill="white"/>
<path d="M35.1961 2.83105L34.7875 4.65361C34.0675 4.80928 33.1855 4.42012 32.7833 5.25032L31.4018 11.4509H29.2744C29.8517 9.40783 29.9944 7.12477 30.5521 5.09466C30.7467 4.38769 30.9932 3.67423 31.6483 3.28507C31.9207 3.12292 32.7833 2.83105 33.0622 2.83105H35.1896H35.1961Z" fill="white"/>
<path d="M38.6806 14.0073H1.72357C0.903267 14.0073 0.238281 14.6723 0.238281 15.4926C0.238281 16.3129 0.903267 16.9779 1.72357 16.9779H38.6806C39.5009 16.9779 40.1659 16.3129 40.1659 15.4926C40.1659 14.6723 39.5009 14.0073 38.6806 14.0073Z" fill="white"/>
<path d="M42.6302 16.8344C43.3717 16.8344 43.9728 16.2333 43.9728 15.4918C43.9728 14.7503 43.3717 14.1492 42.6302 14.1492C41.8887 14.1492 41.2876 14.7503 41.2876 15.4918C41.2876 16.2333 41.8887 16.8344 42.6302 16.8344Z" fill="white"/>
<path d="M47.0159 16.8344C47.7574 16.8344 48.3585 16.2333 48.3585 15.4918C48.3585 14.7503 47.7574 14.1492 47.0159 14.1492C46.2744 14.1492 45.6733 14.7503 45.6733 15.4918C45.6733 16.2333 46.2744 16.8344 47.0159 16.8344Z" fill="white"/>
<path d="M51.3914 16.8344C52.1329 16.8344 52.734 16.2333 52.734 15.4918C52.734 14.7503 52.1329 14.1492 51.3914 14.1492C50.6499 14.1492 50.0488 14.7503 50.0488 15.4918C50.0488 16.2333 50.6499 16.8344 51.3914 16.8344Z" fill="white"/>
</svg>
