<svg width="33" height="33" viewBox="0 0 33 33" fill="none" xmlns="http://www.w3.org/2000/svg">
<path d="M18.2204 20.2358C18.1588 20.1962 18.0796 20.2402 18.0796 20.315V22.2246C18.0796 22.3258 18.1896 22.3874 18.2776 22.3346L19.7472 21.4238C19.8352 21.371 19.8352 21.239 19.7472 21.1862L18.216 20.2402L18.2204 20.2358Z" fill="white"/>
<path d="M24.6663 20.218C24.0855 20.218 23.6191 20.6888 23.6191 21.2652C23.6191 21.8416 24.0899 22.3124 24.6663 22.3124C25.2427 22.3124 25.7135 21.8416 25.7135 21.2652C25.7135 20.6888 25.2427 20.218 24.6663 20.218Z" fill="white"/>
<path d="M27.3682 12.9624C27.3682 12.9624 27.2186 12.4476 26.6114 12.4564C26.0042 12.4652 25.507 13.6312 25.529 15.1932C25.529 15.1932 26.5014 15.1844 27.1174 14.7268C27.7334 14.2692 27.3682 12.9624 27.3682 12.9624Z" fill="white"/>
<path d="M16.3108 0C7.304 0 0 7.2996 0 16.3108C0 25.322 7.2996 32.6216 16.3108 32.6216C25.322 32.6216 32.6216 25.3176 32.6216 16.3108C32.6216 7.304 25.322 0 16.3108 0ZM3.2868 13.7544C3.344 11.8888 4.6728 9.8428 6.6308 9.3764C8.5932 8.91 10.0628 9.5524 10.3048 9.614C10.5424 9.6756 11.0704 9.614 11.0704 9.614L10.9032 12.188C10.5556 11.3212 9.4116 9.46 7.854 9.79C6.2964 10.12 5.7376 11.5544 5.6848 13.8644C5.632 16.1744 6.5472 17.5692 8.228 17.6528C9.9088 17.7364 10.6656 16.324 10.6656 16.324C10.6656 16.324 10.428 15.7828 10.5292 14.5816C10.6348 13.3804 11.858 11.8008 14.4936 11.9592C17.1292 12.1132 17.7496 14.5112 17.5032 15.7652C17.2524 17.0192 16.3504 18.2864 14.1856 18.4844C12.0164 18.6824 10.9648 17.0544 10.9648 17.0544C9.4776 19.0036 6.9432 18.4756 6.9432 18.4756C4.07 17.9784 3.2296 15.6244 3.2868 13.7544ZM8.3864 23.0208C7.1236 23.3904 6.0016 22.506 6.0016 22.506L6.5736 21.8152C6.5736 21.8152 6.7628 21.934 7.3348 22.1848C7.9068 22.4356 8.1796 22.1848 8.1796 22.1848C8.2852 21.67 7.8716 21.7316 6.82 21.4104C5.7684 21.0892 5.9268 19.4436 7.26 19.2764C8.5976 19.1092 9.1564 19.7296 9.1564 19.7296L8.6196 20.4468C8.4744 20.218 7.3436 19.8264 7.1984 20.218C7.0532 20.6096 7.6648 20.6008 8.536 20.9C9.4072 21.1992 9.6448 22.6512 8.382 23.0252L8.3864 23.0208ZM12.6632 20.2136H11.44V23.1088H10.6304V20.2136H9.438V19.4524H12.6676V20.2136H12.6632ZM16.5792 21.9076C16.5792 22.6072 16.0116 23.1792 15.3076 23.1792H14.4144C13.7148 23.1792 13.1428 22.6116 13.1428 21.9076V19.4524H14.168V21.604C14.168 22.0132 14.498 22.3432 14.9072 22.3432C15.2812 22.3432 15.5892 22.0396 15.5892 21.6612V19.382H16.5792V21.9032V21.9076ZM18.8672 23.1088H17.1292V19.4524H18.8672C19.8792 19.4524 20.6976 20.2708 20.6976 21.2828C20.6976 22.2948 19.8792 23.1132 18.8672 23.1132V23.1088ZM22.1716 23.1088H21.0848V19.382H22.1716V23.1088ZM24.6664 23.2628C23.5664 23.2628 22.6732 22.3696 22.6732 21.2696C22.6732 20.1696 23.5664 19.2764 24.6664 19.2764C25.7664 19.2764 26.6596 20.1696 26.6596 21.2696C26.6596 22.3696 25.7664 23.2628 24.6664 23.2628ZM26.8972 18.48C26.8972 18.48 25.5992 18.5988 24.6796 17.9652C24.6796 17.9652 23.5224 18.7836 22.2904 18.3172C22.2904 18.3172 21.824 18.1984 21.2872 17.3536C20.7504 16.5044 20.2136 15.5716 20.2136 15.5716L19.9012 15.9368V18.2952H17.886L17.908 10.4544C17.908 10.4544 17.8508 9.8208 17.1248 9.6492H19.8836V14.8852L21.6348 12.892C21.6348 12.892 21.7976 12.7424 21.7492 12.4872C21.7008 12.232 21.12 11.8976 21.12 11.8976H23.6104L21.516 14.3616L23.0076 16.7816C23.0076 16.7816 23.5752 17.8156 24.1824 17.534C24.1824 17.534 23.3332 16.874 23.4124 15.0744C23.4916 13.2792 24.9216 11.8932 27.2932 11.9856C29.6648 12.078 29.9068 13.7588 28.9124 14.718C27.918 15.6772 25.5772 15.7388 25.5772 15.7388C25.5772 15.7388 25.6784 17.8376 27.5704 17.512C27.5704 17.512 28.8728 17.3404 29.4624 16.5704C29.4624 16.5704 29.04 18.3832 26.8928 18.4756L26.8972 18.48ZM29.4888 17.754H29.3524V18.1588H29.238V17.754H29.1016V17.6572H29.4888V17.754ZM29.9728 17.9696C29.9728 17.908 29.9728 17.8376 29.9728 17.7628C29.9552 17.8288 29.9376 17.8992 29.9156 17.9564L29.854 18.1544H29.766L29.7132 17.9608C29.6956 17.9036 29.678 17.8288 29.6692 17.7628C29.6692 17.8288 29.6648 17.908 29.6604 17.9696L29.6516 18.1588H29.546L29.5768 17.6572H29.7264L29.7748 17.8244C29.7924 17.8816 29.8056 17.9432 29.8188 18.0048C29.832 17.9476 29.8496 17.8816 29.8672 17.8244L29.92 17.6572H30.0696L30.096 18.1588H29.986L29.9772 17.9652L29.9728 17.9696Z" fill="white"/>
<path d="M13.9085 18.0622C14.6739 18.0622 15.2945 16.8034 15.2945 15.2506C15.2945 13.6978 14.6739 12.439 13.9085 12.439C13.143 12.439 12.5225 13.6978 12.5225 15.2506C12.5225 16.8034 13.143 18.0622 13.9085 18.0622Z" fill="white"/>
</svg>
