<svg width="80" height="15" viewBox="0 0 80 15" fill="none" xmlns="http://www.w3.org/2000/svg">
<path d="M15.2054 0.52417L18.5808 3.03898V9.91123C18.5808 11.3219 16.9503 12.1071 15.8475 11.2281L8.04199 5.00248V1.00669L15.1366 6.62153L15.2054 0.52417Z" fill="white"/>
<path d="M4.05556 13.6154L0.680176 11.1006V4.22834C0.680176 2.81763 2.31064 2.03243 3.4135 2.91148L11.219 9.13709V13.1329L4.12434 7.51804L4.05556 13.6154Z" fill="white"/>
<path d="M27.9075 8.50928H33.1266L34.222 7.07007H27.2954C26.2692 7.07007 25.4375 7.90195 25.4375 8.92841C25.4375 9.95488 26.2692 10.7868 27.2954 10.7868H32.0969C32.1912 10.7868 32.2674 10.8629 32.2674 10.9573V11.3671C32.2674 11.4619 32.1902 11.5381 32.0954 11.5376L27.0267 11.4958L25.7809 12.8923H32.3317C33.3756 12.8923 34.2216 12.0456 34.2216 11.002C34.2216 9.95783 33.3751 9.11169 32.3317 9.11169H27.9075C27.7415 9.11169 27.6069 8.97706 27.6069 8.81098C27.6069 8.6449 27.7415 8.51026 27.9075 8.51026V8.50928Z" fill="white"/>
<path d="M77.6003 9.11071H73.1761C73.01 9.11071 72.8754 8.97608 72.8754 8.81C72.8754 8.64391 73.01 8.50928 73.1761 8.50928H78.3951L79.4906 7.07007H72.564C71.5377 7.07007 70.7061 7.90195 70.7061 8.92841C70.7061 9.95488 71.5377 10.7868 72.564 10.7868H77.3655C77.4598 10.7868 77.5359 10.8629 77.5359 10.9573V11.3671C77.5359 11.4619 77.4588 11.5381 77.364 11.5376L72.2953 11.4958L71.0494 12.8923H77.6003C78.6442 12.8923 79.4901 12.0456 79.4901 11.002C79.4901 9.95783 78.6437 9.11169 77.6003 9.11169V9.11071Z" fill="white"/>
<path d="M40.6644 6.96265H37.9797C36.2239 6.96265 34.8008 8.38613 34.8008 10.1423C34.8008 11.8984 36.2239 13.3219 37.9797 13.3219H40.6644C42.4201 13.3219 43.8432 11.8984 43.8432 10.1423C43.8432 8.38613 42.4201 6.96265 40.6644 6.96265ZM42.1892 10.1639C42.1892 11.0773 41.4489 11.8183 40.5352 11.8183H38.0435C37.1303 11.8183 36.39 11.0778 36.39 10.1639C36.39 9.25045 37.1303 8.50996 38.0435 8.50996H40.5352C41.4484 8.50996 42.1892 9.25045 42.1892 10.1639Z" fill="white"/>
<path d="M67.2112 6.96265H64.5265C62.7708 6.96265 61.3477 8.38613 61.3477 10.1423C61.3477 11.8984 62.7708 13.3219 64.5265 13.3219H67.2112C68.967 13.3219 70.3901 11.8984 70.3901 10.1423C70.3901 8.38613 68.967 6.96265 67.2112 6.96265ZM68.7361 10.1639C68.7361 11.0773 67.9958 11.8183 67.082 11.8183H64.5904C63.6772 11.8183 62.9369 11.0778 62.9369 10.1639C62.9369 9.25045 63.6772 8.50996 64.5904 8.50996H67.082C67.9953 8.50996 68.7361 9.25045 68.7361 10.1639Z" fill="white"/>
<path d="M50.1587 10.701L46.1948 7.1612C45.6343 6.66099 44.7461 7.05851 44.7461 7.80981V14.1386L46.5505 13.3224V9.67012L50.5826 13.3352C51.1127 13.8172 51.9631 13.4409 51.9631 12.7244V6.06104L50.1587 7.07079V10.7015V10.701Z" fill="white"/>
<path d="M58.3853 10.701L54.4214 7.1612C53.8608 6.66099 52.9727 7.05851 52.9727 7.80981V14.1386L54.777 13.3224V9.67012L58.8092 13.3352C59.3393 13.8172 60.1896 13.4409 60.1896 12.7244V6.06104L58.3853 7.07079V10.7015V10.701Z" fill="white"/>
</svg>
