<svg width="18" height="19" viewBox="0 0 18 19" fill="none" xmlns="http://www.w3.org/2000/svg">
<path d="M14.5583 13.07C13.8397 13.07 13.1967 13.3325 12.705 13.7438L5.96323 10.1125C6.01051 9.91125 6.04833 9.71 6.04833 9.5C6.04833 9.29 6.01051 9.08875 5.96323 8.8875L12.6294 5.29125C13.14 5.72875 13.8113 6 14.5583 6C16.128 6 17.395 4.8275 17.395 3.375C17.395 1.9225 16.128 0.75 14.5583 0.75C12.9887 0.75 11.7217 1.9225 11.7217 3.375C11.7217 3.585 11.7595 3.78625 11.8068 3.9875L5.1406 7.58375C4.63 7.14625 3.95866 6.875 3.21167 6.875C1.64204 6.875 0.375 8.0475 0.375 9.5C0.375 10.9525 1.64204 12.125 3.21167 12.125C3.95866 12.125 4.63 11.8537 5.1406 11.4162L11.873 15.0563C11.8257 15.24 11.7973 15.4325 11.7973 15.625C11.7973 17.0338 13.036 18.18 14.5583 18.18C16.0807 18.18 17.3194 17.0338 17.3194 15.625C17.3194 14.2163 16.0807 13.07 14.5583 13.07Z" fill="white"/>
</svg>
