<svg width="35" height="38" viewBox="0 0 35 38" fill="none" xmlns="http://www.w3.org/2000/svg">
<path d="M31.8864 35.914C29.0067 37.5408 24.0739 38 17.2453 38C10.4167 38 5.48386 37.5343 2.60418 35.914C0.878992 34.9432 0.00655979 33.6182 0.00655979 32.667C0.00655979 32.1226 0.295184 31.8143 0.938029 31.8143H33.5591C34.202 31.8143 34.4906 32.1226 34.4906 32.667C34.4906 33.6182 33.6182 34.9432 31.893 35.914H31.8864ZM33.5591 10.7119H0.931469C0.288624 10.7119 0 10.3774 0 9.78042C0 6.24478 5.31987 0 17.2387 0C29.1576 0 34.4775 6.24478 34.4775 9.78042C34.4775 10.3774 34.1888 10.7119 33.546 10.7119H33.5591Z" fill="white"/>
<path d="M0.00683594 18.0849V13.2111C0.00683594 12.5289 0.426654 12.0172 1.29909 12.0172H2.61757C4.01478 12.0172 4.90689 12.7257 4.90689 14.0507C4.90689 14.6148 4.69698 15.0019 4.48707 15.2446C4.43459 15.3102 4.39524 15.3298 4.39524 15.3889C4.39524 15.4348 4.44771 15.4742 4.50675 15.5201C4.63794 15.6316 5.22831 16.0842 5.22831 17.0681C5.22831 18.2948 4.32964 19.2787 2.86028 19.2787H1.29909C0.426654 19.2787 0.00683594 18.7671 0.00683594 18.0849ZM1.95505 14.6673C1.95505 14.8116 2.04033 14.9231 2.23055 14.9231H2.37487C2.85372 14.9231 2.99803 14.5492 2.99803 14.2803C2.99803 13.9917 2.85372 13.6637 2.37487 13.6637H2.23055C2.04033 13.6637 1.95505 13.7752 1.95505 13.9195V14.6739V14.6673ZM1.95505 17.3699C1.95505 17.5142 2.04033 17.6257 2.23055 17.6257H2.42734C2.95867 17.6257 3.11611 17.219 3.11611 16.9304C3.11611 16.609 2.95867 16.2548 2.42734 16.2548H2.23055C2.04033 16.2548 1.95505 16.3663 1.95505 16.5106V17.3699ZM8.48189 19.3378C10.2727 19.3378 11.2238 18.262 11.2238 16.9173V13.1914C11.2238 12.5289 10.8368 11.9975 10.1284 11.9975C9.41992 11.9975 9.0329 12.5289 9.0329 13.1914V16.7926C9.0329 17.055 8.87547 17.3699 8.48189 17.3699C8.08831 17.3699 7.95056 17.0616 7.95056 16.7926V13.1914C7.95056 12.5289 7.55042 11.9975 6.84198 11.9975C6.13354 11.9975 5.74652 12.5289 5.74652 13.1914V16.9173C5.74652 18.2686 6.69111 19.3378 8.48189 19.3378ZM15.1662 18.6818C14.8644 18.2948 14.602 17.5339 14.5036 16.9698C14.484 16.8386 14.438 16.7598 14.3069 16.7598C14.1953 16.7598 14.1297 16.8254 14.1297 16.9698V18.1439C14.1297 18.8064 13.7427 19.3378 13.0343 19.3378C12.3258 19.3378 11.9388 18.8064 11.9388 18.1439V13.2111C11.9388 12.5223 12.3586 12.0172 13.2311 12.0172H14.484C15.8877 12.0172 17.0488 12.8109 17.0488 14.2147C17.0488 15.1396 16.6486 15.73 16.3075 15.9924C16.2091 16.0711 16.1829 16.1498 16.2223 16.2351C16.3666 16.6221 16.6552 16.9894 16.9766 17.4092C17.1734 17.6651 17.3308 17.9406 17.3308 18.3145C17.3308 18.8786 16.8323 19.3312 16.2551 19.3312C15.9008 19.3312 15.5466 19.1738 15.1727 18.6818H15.1662ZM15.0415 14.4705C15.0415 14.1819 14.8972 13.8539 14.4315 13.8539H14.2741C14.0838 13.8539 13.9985 13.9654 13.9985 14.1097V14.8575C13.9985 15.0019 14.0838 15.1134 14.2741 15.1134H14.4315C14.8972 15.1134 15.0415 14.746 15.0415 14.4705ZM20.755 19.3443C22.4933 19.3443 23.5887 18.2358 23.5887 16.6221C23.5887 15.5922 22.9656 14.8838 21.7324 14.8838H21.3781C20.7222 14.8838 20.2171 15.1921 20.2171 15.8874C20.2171 16.504 20.7615 16.8058 21.1682 16.8058C21.3781 16.8058 21.5093 16.8714 21.5093 17.0288C21.5093 17.2256 21.2798 17.3633 21.0108 17.3633C20.1843 17.3633 19.6136 16.7795 19.6136 15.6841C19.6136 14.4705 20.3876 14.0245 20.9846 14.0245C21.7127 14.0245 21.8373 14.3984 22.3424 14.3984C22.9262 14.3984 23.3264 13.913 23.3264 13.4013C23.3264 13.0274 23.1624 12.7388 22.9065 12.542C22.4408 12.2009 21.7914 11.9451 20.814 11.9451C19.0954 11.9451 17.4292 13.0733 17.4292 15.6841C17.4292 18.1833 19.1019 19.3443 20.7484 19.3443H20.755ZM27.4917 19.2787C28.1083 19.2787 28.6003 18.9114 28.6003 18.2489C28.6003 17.5864 28.1149 17.2321 27.4917 17.2321H26.4947C26.3044 17.2321 26.2192 17.1206 26.2192 16.9763V16.7664C26.2192 16.6221 26.3044 16.5106 26.4947 16.5106H27.2556C27.7869 16.5106 28.2067 16.1892 28.2067 15.625C28.2067 15.0609 27.7869 14.7395 27.2556 14.7395H26.4947C26.3044 14.7395 26.2192 14.628 26.2192 14.4836V14.3065C26.2192 14.1622 26.3044 14.0507 26.4947 14.0507H27.4917C28.1083 14.0507 28.6003 13.6834 28.6003 13.0208C28.6003 12.3583 28.1149 12.0041 27.4917 12.0041H25.3992C24.5268 12.0041 24.107 12.5158 24.107 13.198V18.0718C24.107 18.754 24.5268 19.2656 25.3992 19.2656H27.4917V19.2787ZM29.0988 18.1439V13.2111C29.0988 12.5223 29.5187 12.0172 30.3911 12.0172H31.644C33.0477 12.0172 34.2088 12.8109 34.2088 14.2147C34.2088 15.1462 33.8087 15.73 33.4676 15.9924C33.3692 16.0711 33.3429 16.1498 33.3823 16.2351C33.5266 16.6221 33.7562 16.9304 34.1366 17.4092C34.3334 17.6651 34.4909 17.9406 34.4909 18.3145C34.4909 18.8786 33.9923 19.3312 33.4151 19.3312C33.0609 19.3312 32.7066 19.1738 32.3327 18.6818C32.031 18.2948 31.7686 17.5339 31.6702 16.9698C31.6505 16.8386 31.6046 16.7598 31.4734 16.7598C31.3619 16.7598 31.2963 16.8254 31.2963 16.9698V18.1439C31.2963 18.8064 30.9093 19.3378 30.2009 19.3378C29.4924 19.3378 29.1054 18.8064 29.1054 18.1439H29.0988ZM31.1651 14.8575C31.1651 15.0019 31.2504 15.1134 31.4406 15.1134H31.5981C32.0638 15.1134 32.2081 14.746 32.2081 14.4705C32.2081 14.195 32.0638 13.8539 31.5981 13.8539H31.4406C31.2504 13.8539 31.1651 13.9654 31.1651 14.1097V14.8641V14.8575ZM6.9535 25.3071C6.8551 25.1496 6.84198 25.0512 6.84198 25.0119C6.84198 24.8872 6.90758 24.802 7.03877 24.6773C7.34707 24.3887 8.11455 23.6737 8.53437 23.0177C8.85579 22.5192 8.98698 22.0666 8.98698 21.6927C8.98698 20.7284 8.11455 19.9806 7.1634 19.9806C6.55336 19.9806 5.97611 20.3217 5.58909 20.9515C5.07088 21.7911 4.44771 22.7619 4.04757 23.1489C3.94918 23.2473 3.89014 23.2736 3.81799 23.2736C3.68679 23.2736 3.62776 23.1883 3.62776 23.044V21.9354C3.62776 20.8531 2.98491 19.9806 1.82386 19.9806C0.6628 19.9806 0.0199555 20.8531 0.0199555 21.9354V28.7443C0.0199555 29.8266 0.649681 30.6991 1.82386 30.6991C2.99803 30.6991 3.62776 29.8266 3.62776 28.7443V27.1766C3.62776 27.0454 3.68024 26.947 3.81799 26.947C3.9951 26.947 4.04102 27.1241 4.08037 27.2093C4.3362 27.8194 5.07744 29.1116 5.75964 29.8726C6.22538 30.3842 6.80262 30.6991 7.40611 30.6991C8.43597 30.6991 9.30185 29.8004 9.30185 28.8427C9.30185 28.2458 9.04602 27.8063 8.56061 27.2749C7.93744 26.5993 7.20932 25.7138 6.94694 25.3071H6.9535ZM11.9979 19.9741C10.7581 19.9741 10.0824 20.9055 10.0824 22.06V28.6066C10.0824 29.7676 10.7581 30.6991 11.9979 30.6991C13.2376 30.6991 13.9133 29.7676 13.9133 28.6066V22.06C13.9133 20.899 13.2376 19.9741 11.9979 19.9741ZM22.6114 19.9741C21.47 19.9741 20.8534 20.8268 20.8534 21.896V24.2837C20.8534 24.4805 20.7878 24.5724 20.6631 24.5724C20.5779 24.5724 20.5057 24.5199 20.4336 24.3625L18.8986 21.3778C18.3148 20.2365 17.7047 19.9741 17.0094 19.9741C15.8484 19.9741 15.2055 20.8465 15.2055 21.942V28.7705C15.2055 29.8463 15.8221 30.6925 16.9635 30.6925C18.1049 30.6925 18.7215 29.8398 18.7215 28.7705V26.3828C18.7215 26.186 18.7871 26.0942 18.9117 26.0942C18.997 26.0942 19.0692 26.1467 19.1413 26.3041L20.6828 29.2888C21.2666 30.4301 21.9029 30.6925 22.572 30.6925C23.7331 30.6925 24.3759 29.8201 24.3759 28.7246V21.8895C24.3759 20.8137 23.7593 19.9675 22.6179 19.9675L22.6114 19.9741ZM31.6768 24.2313H31.1323C30.1549 24.2313 29.4071 24.6839 29.4071 25.681C29.4071 26.5862 30.2271 27.0191 30.8371 27.0191C31.1389 27.0191 31.3488 27.1044 31.3488 27.3405C31.3488 27.6292 30.9946 27.8128 30.6207 27.8128C29.3678 27.8128 28.515 26.9601 28.515 25.3792C28.515 23.6212 29.6761 22.9784 30.5748 22.9784C31.6702 22.9784 31.8473 23.5294 32.6082 23.5294C33.4938 23.5294 34.0907 22.8144 34.0907 22.0797C34.0907 21.5353 33.848 21.1154 33.461 20.8334C32.7854 20.3348 31.7686 19.9741 30.3321 19.9741C27.7541 19.9741 25.2418 21.6009 25.2418 25.3792C25.2418 29.1576 27.7541 30.686 30.2337 30.686C32.8313 30.686 34.4843 29.0854 34.4843 26.7371C34.4843 25.2546 33.5528 24.2313 31.6833 24.2313H31.6768Z" fill="white"/>
</svg>
