<svg width="60" height="23" viewBox="0 0 60 23" fill="none" xmlns="http://www.w3.org/2000/svg">
<path d="M38.4787 5.7998L42.1775 18.702L45.7823 5.83337L49.3133 5.82666L53.1061 18.5744L53.2336 18.7557L56.6505 5.7998H60.0002L55.4019 21.6892L50.5888 21.6557L47.4941 10.6868L44.2988 21.7093L39.6132 21.7161L34.8672 5.7998H38.4787Z" fill="white"/>
<path d="M26.0461 5.36365C32.4368 5.1824 36.7397 11.996 33.7055 17.6818C30.6713 23.3676 22.9649 23.6428 19.4138 18.4941C15.6546 13.0432 19.4675 5.55161 26.0461 5.36365ZM26.0461 8.71338C22.3473 8.92148 20.1186 12.9492 21.9311 16.1982C23.851 19.6285 28.8588 19.5815 30.725 16.1244C32.5912 12.6673 29.9262 8.49857 26.0394 8.71338H26.0461Z" fill="white"/>
<path d="M9.50545 0.000244141V2.8398H5.66568C5.55156 2.8398 5.35017 3.17544 5.35017 3.26942V6.14254H8.76032V9.0425H5.35017V21.7164H1.87961V9.0425H0.0872673L0 8.95524V6.2298L0.0872673 6.14254H1.87961V3.0479C1.87961 2.28263 2.45692 1.22199 3.04765 0.745375C3.39672 0.463434 4.37009 0.0069559 4.80643 0.0069559H9.49874L9.50545 0.000244141Z" fill="white"/>
<path d="M14.452 0V18.1584C14.452 18.3195 14.6467 18.588 14.8212 18.588H17.1842V21.6289L17.0969 21.7162H13.5122C12.0421 21.7162 10.9814 20.1454 10.9814 18.7894V0H14.452Z" fill="white"/>
<path d="M28.7105 13.9703L25.005 16.0848C24.7902 16.0513 24.6425 15.8767 24.6358 15.6619C24.7231 14.4335 24.5284 13.064 24.6358 11.849C24.6694 11.4865 24.8238 11.3321 25.193 11.4664C26.1999 12.1712 27.6231 12.6948 28.583 13.4198C28.7978 13.5809 28.8716 13.695 28.7173 13.9636L28.7105 13.9703Z" fill="white"/>
</svg>
