<svg width="95" height="27" viewBox="0 0 95 27" fill="none" xmlns="http://www.w3.org/2000/svg">
<path d="M13.3865 15.8811C14.7641 15.8811 15.8808 14.7643 15.8808 13.3867C15.8808 12.0091 14.7641 10.8923 13.3865 10.8923C12.0089 10.8923 10.8921 12.0091 10.8921 13.3867C10.8921 14.7643 12.0089 15.8811 13.3865 15.8811Z" fill="white"/>
<path d="M13.3864 0C5.98648 0 0 5.99836 0 13.3864C0 20.7745 5.99836 26.7729 13.3864 26.7729C20.7745 26.7729 26.7729 20.7745 26.7729 13.3864C26.7729 5.99836 20.7745 0 13.3864 0ZM6.93671 17.7694C6.93671 18.0426 6.71103 18.2564 6.44972 18.2564H4.69178C4.41859 18.2564 4.20479 18.0307 4.20479 17.7694V13.8853C4.20479 13.6121 4.43047 13.3983 4.69178 13.3983H6.44972C6.72291 13.3983 6.93671 13.624 6.93671 13.8853V17.7694ZM5.55887 11.9611C4.65615 11.9611 3.9316 11.2365 3.9316 10.3338C3.9316 9.43108 4.65615 8.70653 5.55887 8.70653C6.46159 8.70653 7.18615 9.43108 7.18615 10.3338C7.18615 11.2365 6.46159 11.9611 5.55887 11.9611ZM13.3864 18.4583C10.5832 18.4583 8.31455 16.1896 8.31455 13.3864C8.31455 10.5832 10.5832 8.31455 13.3864 8.31455C16.1896 8.31455 18.4583 10.5832 18.4583 13.3864C18.4583 16.1896 16.1896 18.4583 13.3864 18.4583ZM22.5562 17.8169C22.5562 18.0901 22.3305 18.3039 22.0692 18.3039H20.3113C20.0381 18.3039 19.8243 18.0782 19.8243 17.8169V9.00347C19.8243 8.73028 20.0499 8.51648 20.3113 8.51648H22.0692C22.3424 8.51648 22.5562 8.74216 22.5562 9.00347V17.8169Z" fill="white"/>
<path opacity="0.99" fill-rule="evenodd" clip-rule="evenodd" d="M32.0114 8.81366C32.3796 8.78991 32.7359 8.81366 33.0923 8.89681C33.1517 11.8307 33.1517 14.7764 33.0923 17.7102C32.7122 17.9359 32.344 17.9359 31.9639 17.7102C31.8926 14.7407 31.9045 11.7713 32.0114 8.81366Z" fill="white"/>
<path opacity="0.9" fill-rule="evenodd" clip-rule="evenodd" d="M66.3146 8.81357C67.1461 8.68291 67.5143 9.02737 67.3955 9.84695C66.9442 10.5002 66.4572 10.5359 65.9227 9.93009C65.7801 9.4431 65.9227 9.07488 66.3146 8.80169V8.81357Z" fill="white"/>
<path opacity="0.93" fill-rule="evenodd" clip-rule="evenodd" d="M37.3682 11.1415C39.233 10.9277 40.3139 11.7354 40.6108 13.5646C40.6702 14.9187 40.6702 16.2727 40.6108 17.6268C40.4445 17.8169 40.2307 17.9119 39.9575 17.8881C39.7437 17.8881 39.5656 17.8406 39.3993 17.71C39.3755 16.3559 39.3399 15.0018 39.3161 13.6477C39.0667 12.4956 38.3659 12.0442 37.2019 12.3055C36.6317 12.4956 36.2754 12.8875 36.121 13.4695C36.1091 14.883 36.0616 16.2965 35.9903 17.6981C35.5983 17.9238 35.2064 17.9238 34.8263 17.6981C34.7669 15.5957 34.7669 13.4933 34.8263 11.3909L34.9569 11.2602C35.242 11.2009 35.5271 11.2009 35.824 11.2602C35.9666 11.4741 36.0378 11.7235 36.0378 11.9967C36.3942 11.5691 36.8455 11.284 37.38 11.1296L37.3682 11.1415Z" fill="white"/>
<path opacity="0.93" fill-rule="evenodd" clip-rule="evenodd" d="M50.4099 11.1415C53.0112 11.0584 54.1871 12.3293 53.9495 14.9425H49.3647C49.5903 16.7835 50.5406 17.318 52.2154 16.546C52.3579 16.4272 52.4767 16.2847 52.5598 16.1184C52.9637 16.0709 53.3675 16.059 53.7714 16.0709C53.7951 16.5935 53.5932 17.0092 53.1656 17.318C51.9065 18.1139 50.6118 18.1614 49.2815 17.4962C48.557 16.9023 48.1769 16.1421 48.1175 15.2038C47.9749 14.1229 48.1769 13.1133 48.7233 12.1749C49.1746 11.6404 49.7329 11.2959 50.4099 11.1415ZM51.0157 12.0918C52.0609 12.2462 52.6311 12.8519 52.738 13.9091C51.6215 13.9922 50.4931 14.0279 49.3647 13.9922C49.424 12.9232 49.9704 12.2937 51.0038 12.0918H51.0157Z" fill="white"/>
<path opacity="0.92" fill-rule="evenodd" clip-rule="evenodd" d="M61.3851 11.1416C62.3235 11.0109 63.1906 11.201 63.9745 11.6999C64.9248 12.5788 64.7822 12.9827 63.5469 12.9114C62.858 12.1156 62.0622 11.9374 61.1238 12.3888C60.7556 12.8283 60.7794 13.2321 61.207 13.6003C61.9672 13.8735 62.7511 14.0992 63.5351 14.2892C64.6516 14.7168 65.0436 15.5127 64.6991 16.6648C64.4497 17.1756 64.0577 17.5319 63.5351 17.7457C62.3235 18.1139 61.1713 18.007 60.0786 17.4013C59.6391 17.1162 59.4253 16.7361 59.4253 16.2372C59.5797 16.1066 59.7697 16.0472 59.9836 16.0591C60.1261 16.0709 60.2686 16.0828 60.4112 16.1066C61.2307 16.9855 62.181 17.1637 63.2619 16.6292C63.5944 16.2491 63.5944 15.869 63.2619 15.5008C62.4779 15.1563 61.6702 14.9069 60.8388 14.7287C59.5916 14.1942 59.259 13.3271 59.841 12.0918C60.233 11.5811 60.7437 11.2722 61.3495 11.1416H61.3851Z" fill="white"/>
<path opacity="0.94" fill-rule="evenodd" clip-rule="evenodd" d="M70.8877 11.1416C73.3583 10.904 74.5936 12.0324 74.6055 14.5149C74.6649 17.0093 73.4534 18.1496 70.9709 17.9239C69.7237 17.7457 68.9635 17.033 68.6784 15.8096C68.5003 14.8475 68.524 13.8973 68.7616 12.9589C69.1654 11.9968 69.8662 11.391 70.8758 11.1416H70.8877ZM71.2322 12.175C72.2418 12.0799 72.8832 12.5076 73.1802 13.4697C73.4058 14.4199 73.3227 15.3464 72.9188 16.2372C71.9686 17.1756 71.054 17.1518 70.1513 16.1541C69.7474 15.0851 69.7474 14.016 70.1513 12.9589C70.4364 12.5788 70.7927 12.3175 71.2322 12.1868V12.175Z" fill="white"/>
<path opacity="0.93" fill-rule="evenodd" clip-rule="evenodd" d="M78.4897 11.1416C80.3546 10.9278 81.4355 11.7236 81.7324 13.5647C81.7918 14.9188 81.7918 16.2728 81.7324 17.6269C81.5661 17.817 81.3523 17.912 81.0791 17.8882C80.8653 17.8882 80.6872 17.8407 80.5209 17.7101C80.4971 16.356 80.4615 15.0019 80.4377 13.6478C80.1883 12.4957 79.4875 12.0443 78.3234 12.3056C77.7533 12.4957 77.397 12.8876 77.2426 13.4697C77.2307 14.8831 77.1832 16.2966 77.1119 17.6982C76.7199 17.9239 76.328 17.9239 75.9479 17.6982C75.8885 15.5958 75.8885 13.4934 75.9479 11.391L76.0785 11.2604C76.3636 11.201 76.6487 11.201 76.9456 11.2604C77.0881 11.4742 77.1594 11.7236 77.1594 11.9968C77.5158 11.5692 77.9671 11.2841 78.5016 11.1297L78.4897 11.1416Z" fill="white"/>
<path opacity="0.93" fill-rule="evenodd" clip-rule="evenodd" d="M85.3194 11.1416C87.885 11.0465 89.0491 12.2818 88.8234 14.8594C87.3149 14.9425 85.8064 14.9781 84.286 14.9425C84.3217 16.3679 85.0343 17.0211 86.4478 16.8905C86.8635 16.7361 87.208 16.4748 87.4812 16.1184C87.8613 16.059 88.2295 16.059 88.6096 16.1184C88.7046 16.2728 88.7165 16.4272 88.6571 16.5935C88.0276 17.5675 87.113 18.0308 85.9371 17.9714C84.2623 17.9476 83.3002 17.1162 83.0389 15.4651C82.7775 14.0873 83.0745 12.8639 83.9416 11.7949C84.3692 11.486 84.8324 11.2722 85.3194 11.1416ZM85.4026 12.1749C86.7567 12.0324 87.4812 12.6382 87.5644 13.9923H84.286C84.286 13.1371 84.6543 12.5313 85.4144 12.1749H85.4026Z" fill="white"/>
<path opacity="0.92" fill-rule="evenodd" clip-rule="evenodd" d="M95 15.2039V16.76C94.5843 17.4726 93.9429 17.8646 93.0996 17.924C92.0187 18.114 91.0328 17.8765 90.1657 17.2351C89.4411 16.3442 89.6431 15.9641 90.7715 16.1067C91.4366 16.9262 92.28 17.1519 93.2777 16.7956C93.7647 16.5818 93.9191 16.2254 93.7528 15.7147C93.6816 15.584 93.5747 15.489 93.4559 15.4177C92.6244 15.1446 91.793 14.8832 90.9496 14.6457C89.9875 14.1468 89.6906 13.3866 90.0469 12.3532C90.3082 11.8187 90.7358 11.4624 91.2941 11.2723C92.4938 10.9398 93.5747 11.1536 94.5368 11.9256C95.1426 12.8284 94.905 13.1491 93.8004 12.9234C93.2065 12.1751 92.4463 11.9731 91.5554 12.3176C91.0922 12.6739 91.0328 13.0778 91.3773 13.5292C91.6267 13.6717 91.888 13.7786 92.1493 13.8736C92.7907 14.0043 93.4321 14.1706 94.0498 14.3962C94.4418 14.5982 94.7506 14.8714 95 15.2158V15.2039Z" fill="white"/>
<path opacity="0.92" fill-rule="evenodd" clip-rule="evenodd" d="M41.335 11.2249C41.6914 11.1892 42.024 11.2486 42.3328 11.403C42.9623 13.0184 43.6037 14.6338 44.2333 16.2374C44.8628 14.622 45.5042 13.0066 46.1337 11.403C46.2881 11.2724 46.4782 11.213 46.692 11.2249C47.2621 11.1774 47.4522 11.403 47.2503 11.9138C46.4782 13.8618 45.6824 15.8097 44.8747 17.7458C44.4233 17.924 43.9719 17.9121 43.5325 17.6983C42.7129 15.6553 41.8933 13.6123 41.0737 11.5693C41.1331 11.4268 41.2163 11.308 41.335 11.2249Z" fill="white"/>
<path opacity="0.93" fill-rule="evenodd" clip-rule="evenodd" d="M55.4229 11.2247C55.708 11.2128 56.0049 11.2247 56.29 11.2722C56.4326 11.4622 56.5038 11.676 56.5038 11.9255C57.1571 11.3553 57.9173 11.1297 58.7963 11.2722C58.9032 11.4385 58.9625 11.6167 58.9744 11.8305C58.9744 12.0205 58.9388 12.2106 58.8913 12.3887C58.428 12.4125 57.9648 12.4481 57.5134 12.4719C57.0383 12.6025 56.7414 12.8995 56.6107 13.3746C56.587 14.7881 56.5513 16.2015 56.5276 17.6031C56.3613 17.7932 56.1475 17.8882 55.8743 17.8644C55.6605 17.8644 55.4823 17.8169 55.316 17.6863C55.2566 15.5839 55.2566 13.4815 55.316 11.3791C55.3754 11.3316 55.4229 11.2722 55.4467 11.2009L55.4229 11.2247Z" fill="white"/>
<path opacity="0.97" fill-rule="evenodd" clip-rule="evenodd" d="M66.2197 11.2247C66.5047 11.2129 66.8017 11.2247 67.0868 11.2723L67.2174 11.4029C67.2768 13.5053 67.2768 15.6077 67.2174 17.7101C66.8373 17.9358 66.4691 17.9358 66.089 17.7101C66.0771 16.6411 66.0653 15.5839 66.0415 14.5149C66.0415 13.3984 66.1009 12.3056 66.2197 11.2366V11.2247Z" fill="white"/>
</svg>
