<svg width="38" height="32" viewBox="0 0 38 32" fill="none" xmlns="http://www.w3.org/2000/svg">
<path d="M6.1043 0.177246C2.732 0.177246 0 2.90924 0 6.28155C0 9.65386 2.732 12.3859 6.1043 12.3859C9.47661 12.3859 12.2086 9.65386 12.2086 6.28155C12.2086 2.90924 9.47661 0.177246 6.1043 0.177246ZM6.1043 9.5136C4.32363 9.5136 2.87835 8.06832 2.87835 6.28765C2.87835 4.50697 4.32363 3.0617 6.1043 3.0617C7.88498 3.0617 9.33025 4.50697 9.33025 6.28765C9.33025 8.06832 7.88498 9.5136 6.1043 9.5136Z" fill="white"/>
<path d="M12.8789 1.67741V11.9346C12.8789 11.9346 16.1049 12.2151 16.1049 11.9346V5.0924C16.1049 3.87276 17.0928 2.87875 18.3185 2.87875C19.5382 2.87875 20.5322 3.86666 20.5322 5.0924V12.0627H23.3739V3.53126C23.3739 1.67741 21.8738 0.177246 20.0199 0.177246H17.7941C16.9403 0.177246 16.2512 0.866344 16.2512 1.72009H16.0073V0.421174L14.1717 0.40288C13.4643 0.396782 12.885 0.970013 12.885 1.67741H12.8789Z" fill="white"/>
<path d="M34.346 0H28.0527C26.4765 0 25.1987 1.27776 25.1987 2.85396V9.60468C25.1987 11.1809 26.4765 12.4586 28.0527 12.4586H34.346C35.9222 12.4586 37.2 11.1809 37.2 9.60468V2.85396C37.2 1.27776 35.9222 0 34.346 0Z" fill="white"/>
<path d="M6.1043 26.5825C4.32363 26.5825 2.87835 25.1372 2.87835 23.3565C2.87835 21.5758 4.32363 20.1306 6.1043 20.1306C7.43371 20.1306 8.58018 20.9355 9.07413 22.0881L11.7086 20.9294C10.7694 18.7646 8.61067 17.2522 6.1043 17.2522C2.732 17.2522 0 19.9842 0 23.3565C0 26.7288 2.732 29.4608 6.1043 29.4608C8.71434 29.4608 10.9341 27.8265 11.8122 25.5275L9.06194 24.6554C8.56188 25.7897 7.42762 26.5825 6.1043 26.5825Z" fill="white"/>
<path d="M16.0744 17.5808V29.1979H12.8789V20.7763C12.8789 19.0139 14.312 17.5808 16.0744 17.5808Z" fill="white"/>
<path d="M14.4793 16.8553C15.5301 16.8553 16.3819 16.0035 16.3819 14.9527C16.3819 13.9019 15.5301 13.05 14.4793 13.05C13.4285 13.05 12.5767 13.9019 12.5767 14.9527C12.5767 16.0035 13.4285 16.8553 14.4793 16.8553Z" fill="white"/>
<path d="M17.0923 17.581V20.3862H19.4096V26.521C19.4096 28.1431 20.7268 29.4603 22.3489 29.4603H24.6724V26.6002H23.1478C22.5746 26.6002 22.1111 26.1368 22.1111 25.5635V20.2825H24.6724V17.581H22.3184V14.1416H20.861C20.056 14.1416 19.4035 14.7941 19.4035 15.5991V16.215C19.4035 16.9712 18.7937 17.581 18.0375 17.581H17.0923Z" fill="white"/>
<path d="M25.1987 17.5806H28.6747L31.0286 24.7764H31.7299L33.9436 17.5806H37.2061L33.1264 28.9354C32.5654 30.5027 31.0774 31.5455 29.4126 31.5455H29.187C28.4369 31.5455 27.7051 31.3564 27.0465 30.9966L26.5708 30.7344L27.8697 28.2768C27.8697 28.2768 28.6076 29.155 29.7663 28.7708C30.9249 28.3866 30.9249 27.0145 30.9249 27.0145H29.6992C29.6992 27.0145 28.8942 26.8742 28.3332 25.5387C27.7722 24.2032 25.2109 17.5745 25.2109 17.5745L25.1987 17.5806Z" fill="white"/>
</svg>
