<svg width="95" height="16" viewBox="0 0 95 16" fill="none" xmlns="http://www.w3.org/2000/svg">
<path d="M70.3452 14.9031L73.3508 0.283936L77.5586 0.380116L79.3139 10.2384L81.4899 0.283936H84.243L81.2254 14.9031L77.1258 14.8069L75.5268 4.33546L73.0863 14.9031H70.3452Z" fill="white"/>
<path d="M10.8107 4.43155H7.80515C7.93739 3.7583 8.18986 2.4118 7.22808 2.25551C5.05204 1.90686 4.15036 4.26323 5.94169 5.71793C8.09368 7.44915 10.3899 7.71364 9.48827 11.3564C8.64671 14.7347 5.6772 15.4199 2.56342 15.1074C-0.00936033 14.8549 -0.454185 12.5105 0.387377 10.4427H3.34487C2.97218 12.0417 3.04431 13.2319 5.05204 12.9193C6.01382 12.775 6.63898 11.4285 6.41056 10.5389C6.01382 9.04812 2.38308 8.11038 1.84208 5.88625C1.16883 3.12112 3.34487 0.380025 6.11 0.0794666C9.51232 -0.281203 11.8206 0.488226 10.8107 4.41952V4.43155Z" fill="white"/>
<path d="M94.7143 0.283936L94.2334 2.472L89.3283 2.56818L88.5949 6.09072H93.0552L92.6224 8.36294L88.1741 8.42305L87.2484 12.6309H92.2257L91.8049 14.9031H83.7139L86.7315 0.283936H94.7143Z" fill="white"/>
<path d="M56.4474 0.283936L55.9184 2.65233C55.4135 2.76054 52.7446 2.52009 52.5642 2.77256L50.0275 14.9031H47.0219L49.5105 2.66436H46.1924L46.6132 0.283936H56.4594H56.4474Z" fill="white"/>
<path d="M61.9418 0.283936L59.4532 12.5227H63.9135C63.7452 13.3041 63.649 14.1938 63.3484 14.9031H55.8345L58.9963 0.283936H61.9538H61.9418Z" fill="white"/>
<path d="M70.862 0.283936L67.7002 14.9031H64.7427L67.7483 0.283936H70.862Z" fill="white"/>
<path d="M42.85 8.12236L41.6117 7.65349C44.9299 7.65349 46.8174 0.75268 42.9943 0.295832C41.0707 0.0674075 38.7624 0.452119 36.7908 0.283807L33.7251 14.915H36.7307L38.0411 8.89179C42.0566 8.47101 40.145 11.4165 39.9527 13.6166C39.9166 14.0373 39.9767 14.4822 39.9527 14.915H42.9582C42.85 13.4242 43.4031 11.9334 43.5714 10.4908C43.6796 9.55302 43.6916 8.72348 42.85 8.12236ZM40.9265 6.17475C40.8062 6.27092 40.2172 6.60755 40.109 6.60755H38.498L39.3155 2.62816C39.5199 2.29154 41.1549 2.47187 41.5035 2.71232C42.3932 3.3495 41.6358 5.57363 40.9144 6.17475H40.9265Z" fill="white"/>
<path d="M28.3153 0.103498C24.5764 0.548324 23.7228 4.4676 23.0856 7.52127C22.1358 12.0777 21.5588 15.5882 27.5699 15.1194C32.0422 14.7707 32.9679 9.18035 33.4969 5.5977C34.1461 1.2336 32.9199 -0.437506 28.3153 0.103498ZM28.5918 12.1018C27.8945 13.0756 26.007 13.4362 25.6824 12.1138C25.3698 10.8034 26.0792 7.79778 26.4158 6.40319C26.6923 5.27309 27.2333 2.73639 28.4716 2.33965C28.9044 2.19538 29.8301 2.18336 30.1788 2.49594C30.323 2.62818 30.4793 3.04896 30.5154 3.25334C30.7438 4.87636 29.5536 10.7793 28.6038 12.1018H28.5918Z" fill="white"/>
<path d="M19.8874 0.283898C17.9999 0.115586 15.884 0.416144 13.9724 0.283898L10.7144 14.9151H13.8281L14.9703 9.00008C17.9398 9.10828 20.5727 9.06019 21.835 5.95844C22.7126 3.78239 22.9771 0.548389 19.8994 0.283898H19.8874ZM19.0098 5.11687C18.8174 5.6699 18.0239 6.71584 17.3988 6.71584H15.4752L16.3168 2.58017C18.4447 2.15938 19.8633 2.72443 19.0098 5.11687Z" fill="white"/>
</svg>
