<svg width="100" height="113" viewBox="0 0 100 113" fill="none" xmlns="http://www.w3.org/2000/svg">
<path d="M23.6683 8.56738L25.2572 9.93276L20.4062 24.9924L35.4113 18.7585L37.0952 20.1977L19.1781 27.9748L17.4238 26.4845L23.6683 8.56738Z" fill="white"/>
<path d="M20.9317 13.5L19.9675 15.6941L11.5447 16.6583L17.6871 22.6248L16.8092 24.1151L8.73828 16.5703L9.1764 14.466L20.9317 13.5Z" fill="white"/>
<path d="M8.62688 46.5986H10.3406L18.9095 67.2218H16.7593L14.1834 60.7732H4.75596L2.17827 67.2218H0L8.62688 46.5986ZM13.5447 59.1756L9.46968 48.981L5.39466 59.1756H13.5447Z" fill="white"/>
<path d="M28.1172 66.6119C27.9624 66.6699 27.7195 66.7773 27.3905 66.9321C27.0615 67.0869 26.6638 67.2224 26.1993 67.3385C25.7348 67.4547 25.2316 67.5127 24.6897 67.5127C24.1477 67.5127 23.6005 67.4054 23.1061 67.1925C22.6117 66.9796 22.2211 66.6523 21.9308 66.216C21.6404 65.7778 21.4944 65.2394 21.4944 64.5972V53.7182H19.4023V52.1504H21.4944V47.0391H23.4703V52.1504H26.9559V53.7182H23.4703V64.05C23.509 64.5955 23.7079 65.0037 24.065 65.2764C24.424 65.5491 24.8357 65.6846 25.3002 65.6846C25.8421 65.6846 26.3366 65.5931 26.7817 65.4083C27.2269 65.2254 27.4978 65.0934 27.5946 65.016L28.1172 66.6136V66.6119Z" fill="white"/>
<path d="M30.6719 46.0186H32.6478V63.9004C32.6478 64.6606 32.7833 65.1567 33.0542 65.3908C33.3252 65.6248 33.6542 65.7409 34.0413 65.7409C34.3897 65.7409 34.7381 65.7022 35.0865 65.6248C35.4349 65.5473 35.7357 65.4699 35.9874 65.3925L36.3357 66.9901C35.968 67.145 35.5176 67.2699 34.9844 67.3684C34.4513 67.4652 33.9921 67.5145 33.605 67.5145C32.7147 67.5145 32.0021 67.2506 31.4707 66.7262C30.9376 66.2001 30.6719 65.4805 30.6719 64.5655V46.0203V46.0186Z" fill="white"/>
<path d="M37.2645 62.8934C37.2645 61.9503 37.5354 61.1374 38.0773 60.4547C38.6193 59.772 39.3706 59.2424 40.3278 58.8676C41.2867 58.4929 42.3952 58.3046 43.6532 58.3046C44.3887 58.3046 45.1541 58.3627 45.9476 58.4788C46.7412 58.5949 47.4485 58.7691 48.0678 59.0014V57.7275C48.0678 56.4571 47.6913 55.4472 46.9347 54.6958C46.1799 53.9445 45.1347 53.5698 43.7975 53.5698C42.9846 53.5698 42.1858 53.7193 41.4011 54.0202C40.6163 54.3211 39.7982 54.7609 38.9465 55.3416L38.1917 53.9481C39.1788 53.2706 40.1465 52.7621 41.0967 52.4226C42.045 52.083 43.0128 51.9141 44.0016 51.9141C45.8597 51.9141 47.3324 52.4437 48.4162 53.5011C49.5001 54.5604 50.042 56.0225 50.042 57.8894V64.8447C50.042 65.1139 50.1001 65.311 50.2162 65.4359C50.3323 65.5608 50.5153 65.633 50.7687 65.6523V67.22C50.5558 67.2394 50.371 67.2588 50.2162 67.2781C50.0614 67.2975 49.9452 67.2975 49.8678 67.2781C49.384 67.2588 49.0145 67.1039 48.7646 66.8136C48.513 66.5233 48.3775 66.2136 48.3582 65.8846L48.3282 64.7814C47.6508 65.6523 46.7693 66.3262 45.6855 66.7995C44.5998 67.2746 43.4966 67.5104 42.3741 67.5104C41.4046 67.5104 40.5283 67.3027 39.7454 66.8892C38.9606 66.4758 38.3518 65.918 37.9155 65.216C37.4791 64.5139 37.2627 63.7397 37.2627 62.8916L37.2645 62.8934ZM47.401 64.0441C47.6139 63.7749 47.7793 63.5163 47.8954 63.2664C48.0115 63.0166 48.0696 62.7966 48.0696 62.6048V60.4178C47.4116 60.1679 46.7289 59.9761 46.0215 59.8424C45.3142 59.7087 44.6034 59.6418 43.8872 59.6418C42.4726 59.6418 41.3307 59.9198 40.4597 60.4758C39.5888 61.0318 39.1524 61.7902 39.1524 62.7491C39.1524 63.3051 39.2984 63.8295 39.5888 64.3186C39.8791 64.8078 40.3049 65.2107 40.8662 65.5274C41.4275 65.8441 42.0855 66.0025 42.8421 66.0025C43.7905 66.0025 44.6773 65.8212 45.499 65.4553C46.3224 65.091 46.9558 64.6212 47.401 64.0441Z" fill="white"/>
<path d="M67.0375 67.2218H65.0615V58.8237C65.0615 57.0536 64.8011 55.7604 64.2768 54.9422C63.7542 54.124 62.9308 53.7158 61.8082 53.7158C61.034 53.7158 60.2686 53.9041 59.5138 54.2771C58.759 54.6519 58.0956 55.1604 57.5238 55.8043C56.952 56.4483 56.5402 57.182 56.2904 58.009V67.2218H54.3145V52.1463H56.1162V55.5826C56.5226 54.8507 57.0558 54.2102 57.7138 53.6613C58.3719 53.1123 59.1179 52.6847 59.9502 52.3768C60.7824 52.0689 61.6446 51.9141 62.5349 51.9141C63.3671 51.9141 64.0745 52.0689 64.6551 52.3768C65.2357 52.6847 65.7002 53.1229 66.0486 53.6912C66.397 54.2595 66.6486 54.9422 66.8034 55.741C66.9583 56.5398 67.0357 57.4301 67.0357 58.4119V67.22L67.0375 67.2218Z" fill="white"/>
<path d="M78.3652 66.6119C78.2104 66.6699 77.9676 66.7773 77.6403 66.9321C77.3113 67.0869 76.9136 67.2224 76.4491 67.3385C75.9846 67.4547 75.4796 67.5127 74.9395 67.5127C74.3993 67.5127 73.8503 67.4054 73.3559 67.1925C72.8615 66.9796 72.4691 66.6523 72.1788 66.216C71.8885 65.7778 71.7425 65.2394 71.7425 64.5972V53.7182H69.6504V52.1504H71.7425V47.0391H73.7184V52.1504H77.204V53.7182H73.7184V64.05C73.7571 64.5955 73.9559 65.0037 74.3131 65.2764C74.672 65.5491 75.0838 65.6846 75.5483 65.6846C76.0902 65.6846 76.5846 65.5931 77.0298 65.4083C77.4749 65.2254 77.7459 65.0934 77.8427 65.016L78.3652 66.6136V66.6119Z" fill="white"/>
<path d="M80.834 48.9235V46.0186H82.8099V48.9235H80.834ZM80.834 67.2224V52.0889H82.8099V67.2224H80.834Z" fill="white"/>
<path d="M93.729 67.5121C92.6258 67.5121 91.6141 67.3045 90.6939 66.891C89.7736 66.4775 88.9695 65.9039 88.2833 65.172C87.5954 64.44 87.064 63.6025 86.6857 62.6594C86.3092 61.7163 86.1191 60.7151 86.1191 59.6559C86.1191 58.2307 86.4394 56.9304 87.0781 55.7568C87.7168 54.5815 88.6071 53.6489 89.7508 52.9539C90.8927 52.2607 92.2106 51.9141 93.7009 51.9141C95.1137 51.9141 96.363 52.2396 97.4469 52.8871C98.5307 53.5363 99.3348 54.4126 99.8574 55.5158L97.9395 56.1263C97.5137 55.3521 96.9172 54.7469 96.1536 54.3105C95.3882 53.8742 94.5419 53.6577 93.6111 53.6577C92.6047 53.6577 91.6845 53.9181 90.8522 54.4372C90.02 54.9563 89.3566 55.6671 88.8622 56.5715C88.3678 57.4759 88.1215 58.5034 88.1215 59.6577C88.1215 60.8119 88.3731 61.8201 88.8763 62.7438C89.3795 63.6676 90.0481 64.4031 90.8804 64.9503C91.7126 65.4992 92.6328 65.772 93.6393 65.772C94.2973 65.772 94.9325 65.6558 95.5413 65.4236C96.1519 65.1913 96.6832 64.8764 97.139 64.4787C97.5929 64.0828 97.8991 63.6518 98.0539 63.1855L99.9999 63.7661C99.7289 64.4822 99.2785 65.1262 98.6486 65.6981C98.0187 66.2699 97.2832 66.7151 96.4404 67.0335C95.5976 67.3538 94.6932 67.5121 93.7237 67.5121H93.729Z" fill="white"/>
<path d="M2.20605 94.0754V73.4521H5.45939V91.1986H16.5249V94.0736H2.20605V94.0754Z" fill="white"/>
<path d="M17.66 89.6746C17.66 88.7157 17.9362 87.8764 18.4887 87.1567C19.0412 86.4371 19.8013 85.8811 20.769 85.487C21.7367 85.0946 22.8611 84.8975 24.1385 84.8975C24.8159 84.8975 25.5074 84.9468 26.2147 85.0418C26.922 85.1386 27.5466 85.2934 28.0886 85.5063V84.5527C28.0886 83.504 27.7684 82.6841 27.1296 82.0929C26.4909 81.5017 25.5707 81.2061 24.3707 81.2061C23.5174 81.2061 22.715 81.3556 21.9602 81.6565C21.2054 81.9574 20.4013 82.3779 19.5497 82.9198L18.4746 80.7697C19.4811 80.0923 20.4928 79.5891 21.5098 79.26C22.5268 78.931 23.5966 78.7656 24.7191 78.7656C26.7514 78.7656 28.3543 79.297 29.5261 80.3597C30.6962 81.4225 31.2821 82.9304 31.2821 84.8834V90.484C31.2821 90.8482 31.3454 91.1068 31.4704 91.2599C31.5953 91.413 31.8135 91.4992 32.1231 91.5186V94.0751C31.8328 94.1332 31.5706 94.1719 31.3384 94.1913C31.1061 94.2106 30.9126 94.2194 30.7578 94.2194C30.0803 94.2194 29.5666 94.0558 29.2182 93.725C28.8698 93.396 28.6657 93.0089 28.6076 92.5637L28.5214 91.6927C27.8634 92.5444 27.0206 93.2024 25.9948 93.6687C24.969 94.1332 23.9326 94.3654 22.8875 94.3654C21.8423 94.3654 20.9802 94.1596 20.1866 93.7461C19.3931 93.3344 18.772 92.7713 18.3268 92.0622C17.8817 91.3532 17.6582 90.5561 17.6582 89.6728L17.66 89.6746ZM27.332 90.5843C27.5642 90.3379 27.749 90.0898 27.8845 89.8417C28.02 89.5937 28.0868 89.3755 28.0868 89.1854V87.4717C27.5449 87.2623 26.973 87.1057 26.3731 87.0001C25.7731 86.8963 25.1819 86.8435 24.6012 86.8435C23.44 86.8435 22.4951 87.0723 21.7684 87.5297C21.0435 87.9872 20.6793 88.6154 20.6793 89.4142C20.6793 89.8523 20.8007 90.2711 21.0417 90.6705C21.2828 91.0716 21.6329 91.3936 22.0869 91.6417C22.5408 91.8898 23.1074 92.013 23.7866 92.013C24.4658 92.013 25.152 91.8793 25.7907 91.6136C26.4294 91.3461 26.9431 91.0048 27.3302 90.5843H27.332Z" fill="white"/>
<path d="M43.336 94.3651C42.1747 94.3651 41.1243 94.0888 40.1847 93.5363C39.2452 92.9838 38.5044 92.2431 37.9625 91.3141V94.073H35.1455V72.8691H38.3408V81.9025C38.9408 80.9347 39.6921 80.1693 40.5912 79.6081C41.4921 79.0468 42.5513 78.7652 43.7724 78.7652C44.7788 78.7652 45.6991 78.9764 46.5313 79.3987C47.3635 79.821 48.0761 80.3963 48.6656 81.1248C49.2568 81.8532 49.7107 82.689 50.031 83.6285C50.3512 84.5681 50.5095 85.5658 50.5095 86.6215C50.5095 87.6772 50.3301 88.6748 49.9711 89.6144C49.6122 90.554 49.1037 91.3792 48.4474 92.09C47.7893 92.7991 47.0292 93.3569 46.1671 93.7598C45.3049 94.1627 44.3618 94.3633 43.336 94.3633V94.3651ZM42.4932 91.6343C43.19 91.6343 43.8287 91.4953 44.4093 91.2191C44.99 90.9428 45.4932 90.5751 45.919 90.1158C46.3448 89.6584 46.6685 89.1235 46.892 88.5129C47.1137 87.9024 47.2263 87.2725 47.2263 86.6232C47.2263 85.7259 47.038 84.8866 46.6597 84.1036C46.2814 83.3206 45.7536 82.6907 45.0762 82.2139C44.3988 81.7371 43.614 81.4978 42.7237 81.4978C42.085 81.4978 41.485 81.6456 40.9237 81.9412C40.3607 82.2368 39.8628 82.6291 39.4282 83.1148C38.9918 83.6021 38.6293 84.1406 38.339 84.7318V88.6836C38.4551 89.1235 38.6592 89.5194 38.9496 89.8713C39.2399 90.2249 39.5777 90.5293 39.9666 90.788C40.3537 91.0466 40.7707 91.2507 41.2158 91.4038C41.661 91.5569 42.0868 91.6325 42.4932 91.6325V91.6343Z" fill="white"/>
<path d="M58.7884 94.3652C57.511 94.3652 56.3004 94.1576 55.1567 93.7406C54.0148 93.3236 53.0365 92.7007 52.2236 91.8667L53.4148 89.7166C54.2858 90.4908 55.162 91.0521 56.0435 91.4005C56.925 91.7488 57.8013 91.923 58.6722 91.923C59.5432 91.923 60.2892 91.7576 60.8505 91.4251C61.4118 91.0925 61.6933 90.6052 61.6933 89.9594C61.6933 89.4808 61.5473 89.1254 61.257 88.8949C60.9666 88.6644 60.5461 88.4638 59.9936 88.2914C59.4411 88.119 58.7778 87.9272 58.0036 87.716C56.918 87.3905 56.0083 87.0492 55.2729 86.6938C54.5374 86.3384 53.9849 85.902 53.6172 85.3847C53.2494 84.8674 53.0647 84.2058 53.0647 83.3982C53.0647 82.4199 53.3163 81.5859 53.8195 80.8944C54.3227 80.2029 55.0248 79.6769 55.9256 79.3109C56.8265 78.9467 57.8664 78.7637 59.0488 78.7637C60.152 78.7637 61.1725 78.9326 62.1121 79.2722C63.0517 79.6117 63.8786 80.1396 64.5965 80.8557L63.2311 82.9759C62.5537 82.3566 61.8605 81.9009 61.1549 81.6106C60.4476 81.3202 59.6875 81.1742 58.8746 81.1742C58.4101 81.1742 57.9649 81.227 57.5391 81.3326C57.1133 81.4381 56.7596 81.6299 56.4781 81.9062C56.1966 82.1842 56.0558 82.5712 56.0558 83.0692C56.0558 83.4721 56.172 83.7976 56.4042 84.0457C56.6365 84.2956 56.9849 84.5049 57.4494 84.6774C57.9139 84.8498 58.4857 85.0416 59.1631 85.2527C60.3438 85.5976 61.3502 85.9372 62.1842 86.2733C63.0165 86.6093 63.6604 87.0404 64.1162 87.5665C64.5701 88.0943 64.7988 88.8157 64.7988 89.736C64.7988 91.1911 64.2516 92.326 63.1572 93.1406C62.0628 93.9553 60.6059 94.3617 58.7866 94.3617L58.7884 94.3652Z" fill="white"/>
<path d="M42.2918 0L24.2656 7.79463L25.9072 9.20751L37.9124 4.34599L29.5952 12.4433L31.3125 14.208L40.2244 5.53366L35.9611 18.042L37.7153 19.5059L43.6959 1.4903L42.2918 0Z" fill="white"/>
<path d="M23.6683 8.56738L25.2572 9.93276L20.4062 24.9924L35.4113 18.7585L37.0952 20.1977L19.1781 27.9748L17.4238 26.4845L23.6683 8.56738Z" fill="white"/>
<path d="M20.9317 13.5L19.9675 15.6941L11.5447 16.6583L17.6871 22.6248L16.8092 24.1151L8.73828 16.5703L9.1764 14.466L20.9317 13.5Z" fill="white"/>
<path d="M32.188 23.5674L30.0326 24.6143L29.3904 33.067L23.1952 27.1585L21.7383 28.0911L29.5839 35.8681L31.6707 35.3508L32.188 23.5674Z" fill="white"/>
<path d="M16.5015 27.4231L18.1923 29.0788L17.8088 29.4695C17.6469 29.6348 17.5765 29.8178 17.5976 30.0184C17.6205 30.2172 17.7366 30.4214 17.9495 30.6307L20.4586 33.0888C21.2627 33.877 21.692 34.667 21.7448 35.4641C21.7993 36.2594 21.465 37.0248 20.7472 37.7603L20.0733 38.4482L18.3824 36.7925L18.5918 36.5796C18.8698 36.2946 18.9929 35.9937 18.9612 35.6753C18.9296 35.3568 18.7466 35.0348 18.414 34.7093L16.1953 32.5363C15.7237 32.0753 15.4334 31.6671 15.3279 31.3152C15.2205 30.9633 15.2522 30.5991 15.4211 30.2225C15.0481 30.4002 14.6856 30.4389 14.3302 30.3387C13.9748 30.2384 13.5631 29.9586 13.0915 29.4958L10.8728 27.3229C10.5402 26.9973 10.2147 26.8214 9.89449 26.795C9.57602 26.7704 9.2769 26.8988 8.9989 27.1821L8.78952 27.395L7.09863 25.7375L7.77252 25.0496C8.49216 24.3141 9.25051 23.9657 10.0476 24.0027C10.8446 24.0396 11.6434 24.4513 12.4493 25.2396L14.9584 27.6976C15.1713 27.9053 15.3771 28.0196 15.5777 28.0372C15.7783 28.0548 15.9595 27.9809 16.1214 27.8155L16.505 27.4249L16.5015 27.4231Z" fill="white"/>
<path d="M12.8642 31.7029L14.0273 32.843L13.7634 33.1122C13.6508 33.2266 13.6032 33.3515 13.6191 33.4888C13.6332 33.626 13.7141 33.7668 13.8601 33.9093L15.5862 35.6002C16.1387 36.1421 16.4343 36.6858 16.4712 37.233C16.5082 37.7802 16.2795 38.3063 15.785 38.813L15.3223 39.2863L14.1592 38.1462L14.3035 38.0001C14.4953 37.8048 14.5798 37.5972 14.5569 37.379C14.534 37.1609 14.4091 36.9392 14.1804 36.7139L12.6531 35.2184C12.3294 34.9016 12.1305 34.6201 12.0566 34.3773C11.9827 34.1345 12.0039 33.8847 12.12 33.6242C11.8631 33.7457 11.6132 33.772 11.3687 33.7034C11.1241 33.6348 10.8408 33.4413 10.5153 33.1245L8.98981 31.6307C8.76107 31.4073 8.53761 31.2859 8.31767 31.2683C8.09774 31.2507 7.89363 31.3404 7.70185 31.5357L7.55756 31.6817L6.39453 30.5416L6.85728 30.0683C7.35171 29.5633 7.87428 29.3222 8.42148 29.3486C8.97045 29.375 9.51942 29.6583 10.0737 30.2002L11.7997 31.8911C11.9458 32.0336 12.0883 32.1128 12.2255 32.1251C12.3628 32.1375 12.4877 32.0864 12.6003 31.9721L12.8642 31.7029Z" fill="white"/>
</svg>
