<svg width="55" height="56" viewBox="0 0 55 56" fill="none" xmlns="http://www.w3.org/2000/svg">
<path d="M39.0733 4.96294C42.0878 4.97195 44.9762 6.17343 47.1078 8.30498C49.2393 10.4365 50.4408 13.325 50.4498 16.3394V39.0899C50.4408 42.1044 49.2393 44.9928 47.1078 47.1244C44.9762 49.2559 42.0878 50.4574 39.0733 50.4664H16.3228C13.3084 50.4574 10.4199 49.2559 8.28838 47.1244C6.15682 44.9928 4.95535 42.1044 4.94634 39.0899V16.3394C4.95535 13.325 6.15682 10.4365 8.28838 8.30498C10.4199 6.17343 13.3084 4.97195 16.3228 4.96294H39.0733ZM39.0733 0.413086H16.3228C7.56315 0.413086 0.396484 7.57975 0.396484 16.3394V39.0899C0.396484 47.8496 7.56315 55.0163 16.3228 55.0163H39.0733C47.833 55.0163 54.9997 47.8496 54.9997 39.0899V16.3394C54.9997 7.57975 47.833 0.413086 39.0733 0.413086Z" fill="white"/>
<path d="M42.4856 16.3391C41.8107 16.3391 41.1509 16.1389 40.5896 15.7639C40.0284 15.3889 39.591 14.8559 39.3327 14.2324C39.0744 13.6088 39.0068 12.9226 39.1385 12.2606C39.2702 11.5986 39.5952 10.9905 40.0725 10.5132C40.5498 10.036 41.1578 9.71093 41.8198 9.57925C42.4818 9.44757 43.168 9.51515 43.7916 9.77345C44.4152 10.0317 44.9482 10.4692 45.3232 11.0304C45.6982 11.5916 45.8983 12.2514 45.8983 12.9264C45.8993 13.3748 45.8117 13.819 45.6405 14.2335C45.4693 14.648 45.218 15.0246 44.9009 15.3417C44.5838 15.6588 44.2072 15.9101 43.7927 16.0813C43.3783 16.2524 42.9341 16.34 42.4856 16.3391ZM27.6977 18.6134C29.4977 18.6134 31.2572 19.1472 32.7539 20.1472C34.2505 21.1472 35.417 22.5686 36.1058 24.2316C36.7947 25.8945 36.9749 27.7244 36.6237 29.4898C36.2726 31.2552 35.4058 32.8769 34.133 34.1497C32.8602 35.4224 31.2386 36.2892 29.4732 36.6404C27.7078 36.9916 25.8779 36.8113 24.2149 36.1225C22.5519 35.4337 21.1305 34.2672 20.1305 32.7705C19.1305 31.2739 18.5967 29.5143 18.5967 27.7143C18.5993 25.3014 19.559 22.988 21.2652 21.2818C22.9714 19.5756 25.2847 18.616 27.6977 18.6134ZM27.6977 14.0635C24.9978 14.0635 22.3586 14.8641 20.1137 16.3641C17.8688 17.8641 16.1192 19.996 15.086 22.4904C14.0528 24.9848 13.7825 27.7295 14.3092 30.3775C14.8359 33.0255 16.136 35.4578 18.0451 37.3669C19.9542 39.276 22.3865 40.5761 25.0345 41.1028C27.6825 41.6295 30.4272 41.3592 32.9216 40.326C35.416 39.2928 37.5479 37.5432 39.0479 35.2983C40.5479 33.0534 41.3485 30.4142 41.3485 27.7143C41.3485 24.0939 39.9103 20.6218 37.3502 18.0618C34.7902 15.5017 31.3181 14.0635 27.6977 14.0635Z" fill="white"/>
</svg>
