<svg width="245" height="141" viewBox="0 0 245 141" fill="none" xmlns="http://www.w3.org/2000/svg">
<path d="M206.316 31.9187H138.85V18.1875H104.316V31.7398H37.3828L0 0.89211V11.4124L22.4293 33.7008V43.1523L25.8111 48.3241V91.2975H218.065V47.9664L220.556 43.5079V32.9875L244.409 10.5203V0L206.314 31.9187H206.316ZM38.5402 57.8618V82.2017H34.9347V48.6344H36.7364V55.0539H38.5381V57.8618H38.5402ZM47.6186 57.8618V82.2017H44.0131V48.6344H45.8148V55.0539H47.6165V57.8618H47.6186ZM57.4973 57.8618V82.2017H53.8918V48.6344H55.6935V55.0539H57.4953V57.8618H57.4973ZM67.1113 57.8618V82.2017H63.5058V48.6344H65.3075V55.0539H67.1093V57.8618H67.1113ZM76.4565 57.8618V82.2017H72.851V48.6344H74.6527V55.0539H76.4545V57.8618H76.4565ZM85.9351 57.8618V82.2017H82.3296V48.6344H84.1313V55.0539H85.933V57.8618H85.9351ZM95.5491 57.8618V82.2017H91.9436V48.6344H93.7453V55.0539H95.5471V57.8618H95.5491ZM105.028 57.8618V82.2017H101.422V48.6344H103.224V55.0539H105.026V57.8618H105.028ZM114.64 57.8618V82.2017H111.034V48.6344H112.836V55.0539H114.638V57.8618H114.64ZM131.777 82.2017H128.171V55.0539H129.973V48.6344H131.775V82.2017H131.777ZM141.389 82.2017H137.783V55.0539H139.585V48.6344H141.386V82.2017H141.389ZM150.869 82.2017H147.264V55.0539H149.065V48.6344H150.867V82.2017H150.869ZM160.481 82.2017H156.876V55.0539H158.677V48.6344H160.479V82.2017H160.481ZM169.96 82.2017H166.354V55.0539H168.156V48.6344H169.958V82.2017H169.96ZM179.307 82.2017H175.701V55.0539H177.503V48.6344H179.305V82.2017H179.307ZM188.919 82.2017H185.313V55.0539H187.115V48.6344H188.917V82.2017H188.919ZM198.798 82.2017H195.192V55.0539H196.994V48.6344H198.796V82.2017H198.798ZM207.876 82.2017H204.271V55.0539H206.072V48.6344H207.874V82.2017H207.876Z" fill="white"/>
<path d="M12.6396 27.8184V91.298H21.5416V49.5723L17.9812 42.974V33.5225L12.6396 27.8184Z" fill="white"/>
<path d="M225.571 42.974L222.011 49.5723V91.298H230.911V27.8184L225.571 33.5225V42.974Z" fill="white"/>
<path d="M37.7032 116.071V114.285H45.0538V109.572H37.7032V108.009H45.4252V103.296H31.5654V120.76H45.2405L45.9813 116.071H37.7032Z" fill="white"/>
<path d="M63.0324 115.053C63.0324 112.299 61.6124 110.116 56.2975 109C54.6907 108.652 54.073 108.354 54.073 107.76C54.073 107.265 54.4239 106.942 55.1237 106.942C56.0923 106.942 56.4206 107.514 56.5437 108.258H62.4948C62.2691 104.759 59.3448 102.85 54.9164 102.85C50.0776 102.85 47.6869 105.281 47.6869 108.504C47.6869 110.737 48.2431 113.243 53.9273 114.482C56.2954 115.002 56.4391 115.45 56.4391 116.069C56.4391 116.688 55.9856 117.062 55.1422 117.062C54.0299 117.062 53.6585 116.244 53.5149 115.524H47.1719C47.6049 118.725 49.9935 121.206 55.2653 121.206C60.1041 121.206 63.0283 118.85 63.0283 115.053H63.0324Z" fill="white"/>
<path d="M74.3797 120.76V108.009H78.7035V103.296H63.6904V108.009H68.0573V120.76H74.3797Z" fill="white"/>
<path d="M82.2462 103.296L77.2617 120.76H83.4406L83.9556 118.279H88.7124L89.2685 120.76H96.0239L90.5859 103.296H82.2462ZM85.0884 113.565C85.4188 111.979 85.9113 109.695 86.2006 108.059H86.3648C86.7567 109.695 87.1671 111.681 87.5386 113.565H85.0884Z" fill="white"/>
<path d="M114.166 111.806C114.166 107.166 111.529 103.298 105.742 103.298H97.1748V120.762H105.763C111.199 120.762 114.166 116.842 114.166 111.806ZM103.52 116.145V107.908H105.065C107.166 107.908 107.515 109.968 107.515 111.952C107.515 114.482 106.898 116.143 105.086 116.143H103.52V116.145Z" fill="white"/>
<path d="M122.611 103.296H116.268V120.76H122.611V103.296Z" fill="white"/>
<path d="M133.772 102.85C127.203 102.85 124.71 107.216 124.71 112.052C124.71 117.236 127.798 121.206 133.503 121.206C139.826 121.206 142.606 117.162 142.606 112.028C142.606 106.893 139.146 102.85 133.772 102.85ZM133.731 116.593C131.878 116.593 131.383 114.634 131.383 111.904C131.383 108.928 131.98 107.265 133.628 107.265C135.461 107.265 135.935 108.926 135.935 112.052C135.935 114.632 135.543 116.591 133.731 116.591V116.593Z" fill="white"/>
<path d="M159.639 103.296L158.155 110.764C157.619 113.22 157.435 114.386 157.207 115.674H157.166C156.94 114.285 156.753 113.119 156.197 110.663L154.549 103.296H147.814L153.148 120.76H161.015L166.451 103.296H159.634H159.639Z" fill="white"/>
<path d="M181.528 108.009V103.296H167.668V120.76H181.343L182.084 116.071H173.806V114.285H181.158V109.572H173.806V108.009H181.528Z" fill="white"/>
<path d="M183.813 103.296V120.76H196.932L197.591 116.047H190.177V103.296H183.813Z" fill="white"/>
<path d="M212.83 108.009V103.296H198.971V120.76H212.646L213.387 116.071H205.108V114.285H212.461V109.572H205.108V108.009H212.83Z" fill="white"/>
<path d="M229.84 107.539V103.296H215.076V108.009H222.036L214.725 117.064V120.76H230.006L230.686 116.047H222.633L229.84 107.539Z" fill="white"/>
<path d="M14.8553 122.912L18.9882 123.334L19.5977 117.332H22.4542L21.8878 122.912L26.0207 123.334L26.6302 117.332H29.1378V113.825H26.9852L27.3279 110.437H29.7309V106.456H27.7321L28.2267 101.574L24.0938 101.154L23.5561 106.458H20.6996L21.1942 101.576L17.0613 101.156L16.5236 106.46H14.4798V110.441H16.1214L15.7787 113.829H13.1172V117.336H15.4237L14.8574 122.916L14.8553 122.912ZM20.2954 110.435H23.1519L22.8092 113.823H19.9527L20.2954 110.435Z" fill="white"/>
<path d="M20.3446 134.195C21.1736 133.897 21.898 133.065 21.898 131.784C21.898 130.267 20.8248 129.005 18.4239 129.005H14.0693V140.078H18.5367C20.6811 140.078 22.251 138.872 22.251 136.822C22.251 135.227 21.11 134.446 20.3446 134.195ZM15.6802 130.339H18.3418C19.5689 130.339 20.2523 130.984 20.2523 131.934C20.2523 132.958 19.6572 133.566 18.1448 133.566H15.6802V130.339ZM18.3007 138.746H15.6782V134.9H18.0709C19.8295 134.9 20.5642 135.663 20.5642 136.806C20.5642 138.115 19.6715 138.746 18.3007 138.746Z" fill="white"/>
<path d="M31.4033 135.657C31.4033 138.113 30.2932 138.874 28.6925 138.874C27.3197 138.874 25.953 138.181 25.953 135.657V129.005H24.2949V135.665C24.2949 139.126 26.3203 140.22 28.6618 140.22C31.0032 140.22 33.0553 139.2 33.0553 135.572V129.005H31.4054V135.657H31.4033Z" fill="white"/>
<path d="M37.4797 134.978H42.9383V133.587H37.4797V130.396H43.1948V129.005H35.875V140.078H43.2728L43.478 138.689H37.4797V134.978Z" fill="white"/>
<path d="M52.9076 133.132C52.9076 134.943 52.8994 136.723 53.0081 138.094H52.9856C52.3864 136.89 49.1071 131.576 47.5619 129.007H45.4277V140.08H46.9689V135.848C46.9689 133.852 46.9627 131.899 46.8827 130.694H46.9052C47.5701 131.944 51.0217 137.722 52.4315 140.08H54.4405V129.007H52.9076V133.132Z" fill="white"/>
<path d="M61.9403 128.847C58.579 128.847 56.6973 131.365 56.6973 134.543C56.6973 137.721 58.5134 140.239 61.8069 140.239C65.3099 140.239 67.0418 137.538 67.0418 134.485C67.0418 131.176 65.0759 128.847 61.9403 128.847ZM61.8767 138.855C59.5784 138.855 58.4087 136.845 58.4087 134.495C58.4087 132.146 59.4635 130.23 61.8726 130.23C64.2818 130.23 65.3304 132.177 65.3304 134.508C65.3304 136.839 64.3597 138.855 61.8767 138.855Z" fill="white"/>
<path d="M73.0992 133.556C71.1908 133.096 70.5957 132.705 70.5957 131.716C70.5957 130.728 71.3201 130.144 72.5944 130.144C74.1725 130.144 74.7409 130.939 74.9235 131.866H76.5898C76.44 130.38 75.3401 128.847 72.6498 128.847C70.1545 128.847 68.8986 130.181 68.8986 131.881C68.8986 133.426 69.7728 134.358 72.4528 135.005C74.6075 135.523 75.1493 136.103 75.1493 137.174C75.1493 138.175 74.4926 138.927 72.853 138.927C71.3119 138.927 70.4254 138.253 70.136 136.966H68.4697C68.7057 138.726 69.9554 140.222 72.7401 140.222C75.5248 140.222 76.8443 138.824 76.8443 136.995C76.8443 135.548 76.2594 134.325 73.0951 133.558L73.0992 133.556Z" fill="white"/>
<path d="M85.7693 129.005L81.8662 140.078H83.4935L84.6201 136.9H88.9603L90.1258 140.078H91.8681L87.7988 129.005H85.7672H85.7693ZM85.0264 135.511C85.8329 133.114 86.4629 131.268 86.7338 130.3H86.7502C86.9944 131.171 87.5587 132.709 88.5622 135.511H85.0264Z" fill="white"/>
<path d="M95.1846 129.005H93.543V140.078H95.1846V129.005Z" fill="white"/>
<path d="M106.073 131.983C106.073 130.259 104.846 129.007 102.547 129.007H98.125V140.08H99.7461V135.287H101.876C103.822 135.287 104.238 135.951 104.238 137.457V137.679C104.238 138.744 104.234 139.601 104.433 140.08H106.017C105.839 139.605 105.868 138.662 105.868 137.903V137.414C105.868 135.48 105.075 134.826 104.24 134.59C105.25 134.29 106.073 133.43 106.073 131.983ZM102.075 133.924H99.7482V130.368H102.221C103.659 130.368 104.392 131.005 104.392 132.129C104.392 133.313 103.694 133.924 102.077 133.924H102.075Z" fill="white"/>
<path d="M110.093 134.978H115.552V133.587H110.093V130.396H115.808V129.005H108.488V140.078H115.886L116.091 138.689H110.093V134.978Z" fill="white"/>
<path d="M121.995 133.556C120.086 133.096 119.491 132.705 119.491 131.716C119.491 130.728 120.216 130.144 121.49 130.144C123.068 130.144 123.636 130.939 123.819 131.866H125.485C125.336 130.38 124.236 128.847 121.545 128.847C119.05 128.847 117.794 130.181 117.794 131.881C117.794 133.426 118.668 134.358 121.348 135.005C123.503 135.523 124.045 136.103 124.045 137.174C124.045 138.175 123.388 138.927 121.748 138.927C120.207 138.927 119.321 138.253 119.032 136.966H117.365C117.601 138.726 118.851 140.222 121.636 140.222C124.42 140.222 125.74 138.824 125.74 136.995C125.74 135.548 125.155 134.325 121.991 133.558L121.995 133.556Z" fill="white"/>
<path d="M135.604 135.288H131.377V136.692H135.604V135.288Z" fill="white"/>
<path d="M144.693 129.005L140.79 140.078H142.417L143.544 136.9H147.884L149.05 140.078H150.792L146.723 129.005H144.691H144.693ZM143.95 135.511C144.757 133.114 145.387 131.268 145.658 130.3H145.674C145.918 131.171 146.482 132.709 147.486 135.511H143.95Z" fill="white"/>
<path d="M160.414 131.983C160.414 130.259 159.186 129.007 156.888 129.007H152.466V140.08H154.087V135.287H156.217C158.162 135.287 158.579 135.951 158.579 137.457V137.679C158.579 138.744 158.575 139.601 158.774 140.08H160.358C160.18 139.605 160.208 138.662 160.208 137.903V137.414C160.208 135.48 159.416 134.826 158.581 134.59C159.591 134.29 160.414 133.43 160.414 131.983ZM156.414 133.924H154.087V130.368H156.56C157.998 130.368 158.731 131.005 158.731 132.129C158.731 133.313 158.033 133.924 156.416 133.924H156.414Z" fill="white"/>
<path d="M167.348 130.195C169.117 130.195 169.946 131.1 170.295 132.242H171.936C171.629 130.279 170.001 128.847 167.381 128.847C164.017 128.847 162.179 131.342 162.179 134.66C162.179 137.977 163.89 140.234 167.083 140.234C168.994 140.234 169.97 139.449 170.477 138.654C170.5 139.369 170.547 139.842 170.625 140.076H171.869V134.055H167.284V135.447H170.266V135.56C170.266 137.264 169.695 138.87 167.301 138.87C164.906 138.87 163.888 136.789 163.888 134.58C163.888 132.214 164.836 130.191 167.346 130.191L167.348 130.195Z" fill="white"/>
<path d="M176.116 134.978H181.573V133.587H176.116V130.396H181.832V129.005H174.512V140.078H181.907L182.115 138.689H176.116V134.978Z" fill="white"/>
<path d="M191.541 133.132C191.541 134.943 191.533 136.723 191.642 138.094H191.619C191.02 136.89 187.741 131.576 186.196 129.007H184.062V140.08H185.603V135.848C185.603 133.852 185.596 131.899 185.516 130.694H185.539C186.204 131.944 189.656 137.722 191.065 140.08H193.074V129.007H191.541V133.132Z" fill="white"/>
<path d="M194.766 130.396H198.295V140.078H199.945V130.396H203.477V129.005H194.766V130.396Z" fill="white"/>
<path d="M206.682 129.005H205.04V140.078H206.682V129.005Z" fill="white"/>
<path d="M217.105 133.132C217.105 134.943 217.097 136.723 217.205 138.094H217.183C216.584 136.89 213.304 131.576 211.759 129.007H209.625V140.08H211.166V135.848C211.166 133.852 211.16 131.899 211.08 130.694H211.102C211.767 131.944 215.219 137.722 216.629 140.08H218.638V129.007H217.105V133.132Z" fill="white"/>
<path d="M224.293 129.005L220.39 140.078H222.017L223.144 136.9H227.484L228.649 140.078H230.392L226.322 129.005H224.291H224.293ZM223.55 135.511C224.356 133.114 224.986 131.268 225.257 130.3H225.274C225.518 131.171 226.082 132.709 227.086 135.511H223.55Z" fill="white"/>
</svg>
